
Genre:Comedy | Romance
Language:English
 
http://www.imdb.com/title/tt1632708/

Source:DVD.RELiZLAB/IMAGINE Thanks!

Format : MPEG-4
Format profile : Base Media
Codec ID : isom
File size : 1.26 GiB
Duration : 1h 44mn
Overall bit rate : 1 719 Kbps

Video
ID : 1
Format : AVC
Format/Info : Advanced Video Codec
Format profile : High@L4.1
Format settings, CABAC : Yes
Format settings, ReFrames : 3 frames
Codec ID : avc1
Codec ID/Info : Advanced Video Coding
Duration : 1h 44mn
Bit rate mode : Variable
Bit rate : 1 500 Kbps
Maximum bit rate : 7 070 Kbps
Width : 720 pixels
Height : 304 pixels
Display aspect ratio : 2.35:1
Frame rate mode : Constant
Frame rate : 25.000 fps
Color space : YUV
Chroma subsampling : 4:2:0
Bit depth : 8 bits
Scan type : Progressive
Bits/(Pixel*Frame) : 0.274
Stream size : 1.09 GiB (87%)
Writing library : x264

Audio
ID : 2
Format : AAC
Format/Info : Advanced Audio Codec
Format version : Version 4
Format profile : LC

Format settings, SBR : No
Codec ID : 40
Duration : 1h 44mn
Bit rate mode : Variable
Bit rate : 224 Kbps
Maximum bit rate : 282 Kbps
Channel(s) : 2 channels
Channel positions : Front: L R
Sampling rate : 44.1 KHz
Stream size : 168 MiB (13%)

Plot:
While trying to avoid the clichTs of Hollywood romantic comedies, Dylan and Jamie soon discover however that adding the act of sex to their friendship does lead to complications.
 
http://www.pix2links.com/images/15938490578900007931.png
 
http://www.pix2links.com/images/40912015012971576323.png
 
http://www.pix2links.com/images/43876020474218714680.png
 
http://www.pix2links.com/images/21092941293407879893.png